<svg width="336" height="137" viewBox="0 0 336 137" fill="none" xmlns="http://www.w3.org/2000/svg">
<path d="M167.228 94V59H174.828L185.978 81.2L196.978 59H204.578V94H198.178V69.85L188.428 89H183.378L173.628 69.85V94H167.228ZM223.269 94.6C220.769 94.6 218.552 94.0667 216.619 93C214.685 91.9333 213.169 90.4333 212.069 88.5C210.969 86.5667 210.419 84.3333 210.419 81.8C210.419 79.2333 210.952 76.95 212.019 74.95C213.119 72.95 214.619 71.4 216.519 70.3C218.452 69.1667 220.719 68.6 223.319 68.6C225.752 68.6 227.902 69.1333 229.769 70.2C231.635 71.2667 233.085 72.7333 234.119 74.6C235.185 76.4333 235.719 78.4833 235.719 80.75C235.719 81.1167 235.702 81.5 235.669 81.9C235.669 82.3 235.652 82.7167 235.619 83.15H216.769C216.902 85.0833 217.569 86.6 218.769 87.7C220.002 88.8 221.485 89.35 223.219 89.35C224.519 89.35 225.602 89.0667 226.469 88.5C227.369 87.9 228.035 87.1333 228.469 86.2H234.969C234.502 87.7667 233.719 89.2 232.619 90.5C231.552 91.7667 230.219 92.7667 228.619 93.5C227.052 94.2333 225.269 94.6 223.269 94.6ZM223.319 73.8C221.752 73.8 220.369 74.25 219.169 75.15C217.969 76.0167 217.202 77.35 216.869 79.15H229.219C229.119 77.5167 228.519 76.2167 227.419 75.25C226.319 74.2833 224.952 73.8 223.319 73.8ZM251.352 94.6C249.152 94.6 247.218 94.25 245.552 93.55C243.885 92.8167 242.552 91.8167 241.552 90.55C240.552 89.2833 239.952 87.8167 239.752 86.15H246.202C246.402 87.1167 246.935 87.95 247.802 88.65C248.702 89.3167 249.852 89.65 251.252 89.65C252.652 89.65 253.668 89.3667 254.302 88.8C254.968 88.2333 255.302 87.5833 255.302 86.85C255.302 85.7833 254.835 85.0667 253.902 84.7C252.968 84.3 251.668 83.9167 250.002 83.55C248.935 83.3167 247.852 83.0333 246.752 82.7C245.652 82.3667 244.635 81.95 243.702 81.45C242.802 80.9167 242.068 80.25 241.502 79.45C240.935 78.6167 240.652 77.6 240.652 76.4C240.652 74.2 241.518 72.35 243.252 70.85C245.018 69.35 247.485 68.6 250.652 68.6C253.585 68.6 255.918 69.2833 257.652 70.65C259.418 72.0167 260.468 73.9 260.802 76.3H254.752C254.385 74.4667 253.002 73.55 250.602 73.55C249.402 73.55 248.468 73.7833 247.802 74.25C247.168 74.7167 246.852 75.3 246.852 76C246.852 76.7333 247.335 77.3167 248.302 77.75C249.268 78.1833 250.552 78.5833 252.152 78.95C253.885 79.35 255.468 79.8 256.902 80.3C258.368 80.7667 259.535 81.4833 260.402 82.45C261.268 83.3833 261.702 84.7333 261.702 86.5C261.735 88.0333 261.335 89.4167 260.502 90.65C259.668 91.8833 258.468 92.85 256.902 93.55C255.335 94.25 253.485 94.6 251.352 94.6ZM267.521 94V59H280.371C283.171 59 285.471 59.4833 287.271 60.45C289.104 61.3833 290.471 62.6667 291.371 64.3C292.271 65.9 292.721 67.6833 292.721 69.65C292.721 71.7833 292.154 73.7333 291.021 75.5C289.921 77.2667 288.188 78.55 285.821 79.35L293.071 94H285.721L279.221 80.2H273.921V94H267.521ZM273.921 75.5H279.971C282.104 75.5 283.671 74.9833 284.671 73.95C285.671 72.9167 286.171 71.55 286.171 69.85C286.171 68.1833 285.671 66.85 284.671 65.85C283.704 64.85 282.121 64.35 279.921 64.35H273.921V75.5ZM306.146 94.6C304.012 94.6 302.262 94.2667 300.896 93.6C299.529 92.9 298.512 91.9833 297.846 90.85C297.179 89.7167 296.846 88.4667 296.846 87.1C296.846 84.8 297.746 82.9333 299.546 81.5C301.346 80.0667 304.046 79.35 307.646 79.35H313.946V78.75C313.946 77.05 313.462 75.8 312.496 75C311.529 74.2 310.329 73.8 308.896 73.8C307.596 73.8 306.462 74.1167 305.496 74.75C304.529 75.35 303.929 76.25 303.696 77.45H297.446C297.612 75.65 298.212 74.0833 299.246 72.75C300.312 71.4167 301.679 70.4 303.346 69.7C305.012 68.9667 306.879 68.6 308.946 68.6C312.479 68.6 315.262 69.4833 317.296 71.25C319.329 73.0167 320.346 75.5167 320.346 78.75V94H314.896L314.296 90C313.562 91.3333 312.529 92.4333 311.196 93.3C309.896 94.1667 308.212 94.6 306.146 94.6ZM307.596 89.6C309.429 89.6 310.846 89 311.846 87.8C312.879 86.6 313.529 85.1167 313.796 83.35H308.346C306.646 83.35 305.429 83.6667 304.696 84.3C303.962 84.9 303.596 85.65 303.596 86.55C303.596 87.5167 303.962 88.2667 304.696 88.8C305.429 89.3333 306.396 89.6 307.596 89.6Z" fill="#F7931A"/>
<path d="M67.3454 5.88672C30.1515 5.88672 0 35.2374 0 71.4434C0 99.4989 18.1066 123.434 43.5631 132.79H91.1076L91.1106 132.796C116.576 123.444 134.691 99.5051 134.691 71.4434C134.691 35.2374 104.539 5.88672 67.3454 5.88672V5.88672Z" fill="#FBB03B"/>
<path d="M67.3454 131.648C94.6714 131.648 116.824 110.085 116.824 83.4844C116.824 56.8841 94.6714 35.3203 67.3454 35.3203C40.0193 35.3203 17.8671 56.8841 17.8671 83.4844C17.8671 110.085 40.0193 131.648 67.3454 131.648Z" fill="#F9C55D"/>
<path d="M114.776 41.3917C113.715 47.2489 110.32 52.0199 105.878 54.4923C103.858 55.6161 102.959 58.0163 103.742 60.1489C104.762 62.913 105.177 65.8483 104.91 68.8104C104.726 70.8413 104.229 72.7572 103.453 74.5205C97.9146 89.4433 91.925 114.004 91.1059 132.804C83.7171 135.515 75.7099 137 67.3454 137C58.9725 137 50.9598 135.512 43.5656 132.796C42.7437 113.999 36.7596 89.4433 31.218 74.5205C30.4456 72.7572 29.9481 70.8413 29.7639 68.8104C29.4973 65.8483 29.9123 62.913 30.9294 60.1489C31.7155 58.0163 30.8167 55.6161 28.7963 54.4923C24.3543 52.0199 20.9595 47.2489 19.8985 41.3917C19.1068 37.0248 19.7418 32.6285 21.6852 29.0081C23.854 24.965 27.5181 22.2331 31.7375 21.5079C32.4879 21.3795 33.2549 21.3153 34.0163 21.3153H34.074C36.7073 21.326 38.9311 19.386 39.0878 16.828C39.2032 14.971 39.5276 13.1782 40.0444 11.4978C41.963 5.24988 46.5068 0.561914 52.5679 0.0454883C52.9197 0.0160547 53.277 0 53.6289 0C56.889 0 59.9374 1.25494 62.4745 3.42232C65.2755 5.8118 69.3987 5.8118 72.197 3.42232C74.7368 1.25494 77.7853 0 81.0426 0C81.3972 0 81.7545 0.0160547 82.1064 0.0454883C88.2004 0.56459 92.7359 5.2258 94.6381 11.4952C95.1494 13.1729 95.4682 14.9656 95.5809 16.8253C95.7349 19.386 97.9641 21.326 100.6 21.3153H100.658C101.419 21.3153 102.186 21.3795 102.937 21.5079C107.156 22.2331 110.817 24.965 112.986 29.0081C114.93 32.6285 115.565 37.0248 114.776 41.3917V41.3917Z" fill="#D85F35"/>
<path d="M55.5146 33.0284C60.7573 32.5826 64.4555 26.0714 63.7748 18.4852C63.094 10.8989 58.2921 5.11046 53.0494 5.55624C47.8067 6.00202 44.1085 12.5133 44.7892 20.0995C45.47 27.6857 50.2719 33.4742 55.5146 33.0284Z" fill="#574F7F"/>
<path d="M37.0495 50.6887C42.2343 49.7971 45.4727 43.7582 44.2827 37.2005C43.0927 30.6427 37.9248 26.0494 32.74 26.941C27.5552 27.8325 24.3168 33.8714 25.5069 40.4291C26.6969 46.9869 31.8647 51.5802 37.0495 50.6887Z" fill="#574F7F"/>
<path d="M91.4168 127.994C70.1695 122.152 67.347 96.6027 67.1873 84.9914C67.1452 81.9394 63.7417 80.0604 61.0297 81.5926C61.0033 81.6076 60.9767 81.6226 60.9503 81.6375C57.8428 83.3945 53.9755 85.5808 48.7811 85.5808C46.4251 85.5808 43.9762 85.1163 41.5034 84.2004C37.1353 82.5824 33.7422 79.6304 31.7015 75.8423C37.1007 90.8615 42.7646 114.538 43.5634 132.79C50.9587 135.508 58.9725 137 67.3453 137C75.7107 137 83.7177 135.511 91.1078 132.797C91.1763 131.233 91.2799 129.629 91.4168 127.994Z" fill="#C64928"/>
<path d="M90.1334 52.574C77.8655 45.4275 78.0588 36.5886 67.3366 36.5886C56.6144 36.5886 56.8076 45.4275 44.5398 52.574C32.2719 59.7202 32.6584 74.8593 43.5738 78.9026C54.4893 82.946 58.4497 73.5428 67.3366 73.5428C76.2234 73.5428 80.1839 82.946 91.0993 78.9026C102.015 74.8593 102.401 59.7205 90.1334 52.574V52.574Z" fill="#574F7F"/>
<path d="M63.1427 66.5788C51.9376 66.8295 48.7176 52.1609 55.0613 43.5374C52.5879 46.3376 49.6429 49.6015 44.54 52.574C32.2722 59.7202 32.6587 74.8593 43.5741 78.9026C54.4895 82.946 58.45 73.5428 67.3368 73.5428C76.2237 73.5428 80.1841 82.946 91.0996 78.9026C95.9443 77.108 98.7093 73.1264 99.2201 68.6292C89.2266 83.0217 79.119 66.2213 63.1427 66.5788V66.5788Z" fill="#493D71"/>
<path d="M89.8534 20.107C90.5342 12.5207 86.836 6.00951 81.5933 5.56372C76.3506 5.11794 71.5487 10.9064 70.8679 18.4926C70.1872 26.0789 73.8854 32.5901 79.1281 33.0359C84.3708 33.4817 89.1727 27.6932 89.8534 20.107Z" fill="#574F7F"/>
<path d="M109.232 40.4289C110.422 33.8712 107.183 27.8323 101.998 26.9408C96.8136 26.0492 91.6458 30.6425 90.4558 37.2003C89.2658 43.758 92.5042 49.7969 97.689 50.6884C102.874 51.58 108.042 46.9867 109.232 40.4289Z" fill="#574F7F"/>
<path d="M60.232 28.4497C54.9882 28.8963 50.1847 23.1072 49.5027 15.5195C49.1794 11.9225 49.8416 8.56837 51.1852 5.98624C46.9672 7.62943 44.2044 13.4503 44.8017 20.0956C45.4837 27.6833 50.2875 33.4724 55.5311 33.0258C58.2889 32.7909 60.618 30.8766 62.1084 28.0119C61.5102 28.2447 60.8832 28.3943 60.232 28.4497V28.4497Z" fill="#493D71"/>
<path d="M41.725 46.1155C36.5413 47.0052 31.3761 42.4117 30.1886 35.8552C29.6251 32.7449 30.0597 29.7526 31.2238 27.3703C26.9346 29.0587 24.4192 34.5334 25.4876 40.4313C26.6751 46.9878 31.8404 51.5816 37.024 50.6916C39.7486 50.2239 41.9347 48.3335 43.2245 45.6941C42.7454 45.8827 42.2456 46.0261 41.725 46.1155Z" fill="#493D71"/>
<path d="M83.8436 28.4497C78.6 28.0031 74.9018 21.49 75.5838 13.9023C75.8441 11.0052 76.7066 8.37225 77.9639 6.24661C74.3006 7.98801 71.4012 12.7121 70.8828 18.4784C70.2008 26.0661 73.8987 32.5792 79.1426 33.0258C82.3843 33.302 85.4563 31.1932 87.4918 27.7516C86.3345 28.3015 85.1023 28.557 83.8436 28.4497V28.4497Z" fill="#493D71"/>
<path d="M102.351 46.1155C97.167 45.2258 93.9272 39.1895 95.115 32.633C95.4396 30.84 96.0636 29.1954 96.9023 27.7682C93.7563 29.3554 91.2043 32.8465 90.414 37.2091C89.2265 43.7656 92.466 49.8019 97.6497 50.6916C101.416 51.3381 105.171 49.0883 107.399 45.2961C105.817 46.0946 104.085 46.4133 102.351 46.1155Z" fill="#493D71"/>
</svg>
