<svg width="78" height="69" viewBox="0 0 78 69" fill="none" xmlns="http://www.w3.org/2000/svg">
<path d="M39 2.96484C17.4609 2.96484 0 17.7473 0 35.9824C0 50.1126 10.4856 62.1674 25.2276 66.8797H52.7608L52.7625 66.8828C67.5098 62.1728 78 50.1157 78 35.9824C78 17.7473 60.5391 2.96484 39 2.96484V2.96484Z" fill="#FBB03B"/>
<path d="M39 66.3047C54.8246 66.3047 67.6531 55.4441 67.6531 42.0469C67.6531 28.6497 54.8246 17.7891 39 17.7891C23.1754 17.7891 10.3469 28.6497 10.3469 42.0469C10.3469 55.4441 23.1754 66.3047 39 66.3047Z" fill="#F9C55D"/>
<path d="M66.4671 20.8469C65.8527 23.7969 63.8868 26.1998 61.3144 27.445C60.1444 28.011 59.6238 29.2199 60.0775 30.294C60.6681 31.6861 60.9084 33.1645 60.754 34.6563C60.6474 35.6792 60.3593 36.6441 59.9104 37.5322C56.7028 45.0481 53.2342 57.4182 52.7598 66.8869C48.481 68.2521 43.844 69 39 69C34.1513 69 29.5111 68.2507 25.229 66.8828C24.7531 57.4155 21.2876 45.0481 18.0785 37.5322C17.6312 36.6441 17.3431 35.6792 17.2364 34.6563C17.082 33.1645 17.3224 31.6861 17.9113 30.294C18.3666 29.2199 17.8461 28.011 16.6761 27.445C14.1037 26.1998 12.1377 23.7969 11.5233 20.8469C11.0648 18.6475 11.4326 16.4333 12.558 14.6099C13.8139 12.5736 15.9359 11.1977 18.3793 10.8325C18.8139 10.7678 19.258 10.7354 19.699 10.7354H19.7324C21.2574 10.7408 22.5452 9.76377 22.6359 8.47541C22.7028 7.54014 22.8906 6.63721 23.1899 5.79088C24.301 2.6441 26.9323 0.283008 30.4423 0.0229102C30.646 0.00808594 30.853 0 31.0567 0C32.9446 0 34.71 0.632051 36.1793 1.72365C37.8013 2.92711 40.1891 2.92711 41.8096 1.72365C43.2804 0.632051 45.0458 0 46.9321 0C47.1375 0 47.3444 0.00808594 47.5482 0.0229102C51.0773 0.284355 53.7038 2.63197 54.8053 5.78953C55.1014 6.63451 55.2861 7.53744 55.3513 8.47406C55.4405 9.76377 56.7315 10.7408 58.258 10.7354H58.2915C58.7324 10.7354 59.1765 10.7678 59.6111 10.8325C62.0546 11.1977 64.1749 12.5736 65.4309 14.6099C66.5563 16.4333 66.924 18.6475 66.4671 20.8469V20.8469Z" fill="#D85F35"/>
<path d="M32.1487 16.6347C35.1848 16.4102 37.3265 13.1308 36.9322 9.31004C36.538 5.48924 33.7572 2.57388 30.7212 2.7984C27.6851 3.02292 25.5434 6.3023 25.9377 10.1231C26.3319 13.9439 29.1127 16.8593 32.1487 16.6347Z" fill="#574F7F"/>
<path d="M21.4555 25.5293C24.4581 25.0803 26.3335 22.0388 25.6443 18.736C24.9552 15.4332 21.9624 13.1198 18.9599 13.5688C15.9574 14.0178 14.082 17.0593 14.7711 20.3621C15.4603 23.6649 18.453 25.9784 21.4555 25.5293Z" fill="#574F7F"/>
<path d="M52.9399 64.4639C40.6354 61.5216 39.001 48.6539 38.9085 42.8059C38.8841 41.2687 36.9131 40.3224 35.3426 41.0941C35.3273 41.1016 35.3119 41.1092 35.2966 41.1167C33.497 42.0016 31.2575 43.1028 28.2494 43.1028C26.885 43.1028 25.4668 42.8688 24.0348 42.4075C21.5052 41.5926 19.5403 40.1058 18.3585 38.198C21.4852 45.7624 24.7652 57.6868 25.2277 66.8799C29.5104 68.2487 34.1513 69 39 69C43.8444 69 48.4813 68.25 52.7609 66.8834C52.8006 66.0953 52.8606 65.2876 52.9399 64.4639Z" fill="#C64928"/>
<path d="M52.1966 26.4789C45.0923 22.8796 45.2042 18.4279 38.9949 18.4279C32.7856 18.4279 32.8975 22.8796 25.7932 26.4789C18.6888 30.0781 18.9126 37.7028 25.2338 39.7393C31.555 41.7757 33.8485 37.0398 38.9949 37.0398C44.1413 37.0398 46.4348 41.7757 52.756 39.7393C59.0772 37.7028 59.301 30.0782 52.1966 26.4789V26.4789Z" fill="#574F7F"/>
<path d="M36.5662 33.5324C30.0773 33.6587 28.2126 26.2708 31.8862 21.9276C30.4539 23.3379 28.7484 24.9818 25.7933 26.4789C18.689 30.0781 18.9128 37.7028 25.234 39.7393C31.5551 41.7757 33.8487 37.0398 38.9951 37.0398C44.1415 37.0398 46.435 41.7757 52.7562 39.7393C55.5618 38.8354 57.163 36.8301 57.4588 34.5651C51.6715 41.8139 45.8182 33.3523 36.5662 33.5324V33.5324Z" fill="#493D71"/>
<path d="M52.0345 10.1269C52.4288 6.30606 50.2871 3.02668 47.251 2.80217C44.215 2.57765 41.4342 5.49301 41.0399 9.31381C40.6457 13.1346 42.7874 16.414 45.8234 16.6385C48.8595 16.863 51.6403 13.9477 52.0345 10.1269Z" fill="#574F7F"/>
<path d="M63.2565 20.362C63.9457 17.0592 62.0703 14.0177 59.0678 13.5687C56.0652 13.1197 53.0725 15.4331 52.3833 18.7359C51.6942 22.0387 53.5696 25.0802 56.5721 25.5292C59.5747 25.9782 62.5674 23.6648 63.2565 20.362Z" fill="#574F7F"/>
<path d="M34.8806 14.3287C31.8439 14.5536 29.0622 11.6379 28.6672 7.8164C28.48 6.00474 28.8635 4.31546 29.6416 3.01497C27.1989 3.84256 25.599 6.77426 25.9449 10.1212C26.3398 13.9427 29.1217 16.8584 32.1583 16.6334C33.7554 16.5151 35.1041 15.551 35.9672 14.1082C35.6209 14.2254 35.2578 14.3008 34.8806 14.3287V14.3287Z" fill="#493D71"/>
<path d="M24.1631 23.2261C21.1613 23.6741 18.17 21.3606 17.4824 18.0585C17.156 16.492 17.4077 14.9849 18.0818 13.785C15.5979 14.6354 14.1413 17.3927 14.76 20.3632C15.4477 23.6654 18.4389 25.979 21.4408 25.5308C23.0186 25.2952 24.2846 24.3431 25.0315 23.0138C24.754 23.1088 24.4646 23.181 24.1631 23.2261Z" fill="#493D71"/>
<path d="M48.5542 14.3287C45.5176 14.1038 43.376 10.8234 43.7709 7.00188C43.9216 5.54278 44.4212 4.21668 45.1493 3.1461C43.0278 4.02316 41.3487 6.40244 41.0485 9.30664C40.6536 13.1282 42.7951 16.4085 45.8318 16.6334C47.7091 16.7725 49.4881 15.7104 50.6669 13.9771C49.9967 14.254 49.2831 14.3827 48.5542 14.3287V14.3287Z" fill="#493D71"/>
<path d="M59.2717 23.226C56.2698 22.7779 54.3937 19.7378 55.0815 16.4356C55.2695 15.5325 55.6309 14.7043 56.1165 13.9854C54.2947 14.7849 52.8168 16.5431 52.3592 18.7404C51.6715 22.0425 53.5475 25.0827 56.5494 25.5308C58.7303 25.8564 60.9048 24.7233 62.1951 22.8134C61.279 23.2155 60.2762 23.376 59.2717 23.226Z" fill="#493D71"/>
</svg>
